G04 #@! TF.FileFunction,Copper,L2,Bot,Signal*
%FSLAX46Y46*%
G04 Gerber Fmt 4.6, Leading zero omitted, Abs format (unit mm)*
G04 Created by KiCad (PCBNEW 4.0.7-e2-6376~60~ubuntu17.10.1) date Mon Feb  5 04:30:27 2018*
%MOMM*%
%LPD*%
G01*
G04 APERTURE LIST*
%ADD10C,0.100000*%
%ADD11C,4.064000*%
%ADD12R,1.600000X1.600000*%
%ADD13C,1.600000*%
%ADD14C,4.000000*%
%ADD15O,1.200000X2.000000*%
%ADD16R,1.700000X1.700000*%
%ADD17O,1.700000X1.700000*%
%ADD18C,0.600000*%
%ADD19C,0.500000*%
G04 APERTURE END LIST*
D10*
D11*
X245110000Y-151130000D03*
X105410000Y-151130000D03*
X105410000Y-62230000D03*
D12*
X119380000Y-67310000D03*
D13*
X122150000Y-67310000D03*
X124920000Y-67310000D03*
X127690000Y-67310000D03*
X130460000Y-67310000D03*
X120765000Y-70150000D03*
X123535000Y-70150000D03*
X126305000Y-70150000D03*
X129075000Y-70150000D03*
D14*
X112420000Y-68730000D03*
X137420000Y-68730000D03*
D12*
X165100000Y-67310000D03*
D13*
X167870000Y-67310000D03*
X170640000Y-67310000D03*
X173410000Y-67310000D03*
X176180000Y-67310000D03*
X166485000Y-70150000D03*
X169255000Y-70150000D03*
X172025000Y-70150000D03*
X174795000Y-70150000D03*
D14*
X158140000Y-68730000D03*
X183140000Y-68730000D03*
D12*
X211455000Y-67310000D03*
D13*
X214225000Y-67310000D03*
X216995000Y-67310000D03*
X219765000Y-67310000D03*
X222535000Y-67310000D03*
X212840000Y-70150000D03*
X215610000Y-70150000D03*
X218380000Y-70150000D03*
X221150000Y-70150000D03*
D14*
X204495000Y-68730000D03*
X229495000Y-68730000D03*
D12*
X119380000Y-143510000D03*
D13*
X122150000Y-143510000D03*
X124920000Y-143510000D03*
X127690000Y-143510000D03*
X130460000Y-143510000D03*
X120765000Y-146350000D03*
X123535000Y-146350000D03*
X126305000Y-146350000D03*
X129075000Y-146350000D03*
D14*
X112420000Y-144930000D03*
X137420000Y-144930000D03*
D12*
X165100000Y-143510000D03*
D13*
X167870000Y-143510000D03*
X170640000Y-143510000D03*
X173410000Y-143510000D03*
X176180000Y-143510000D03*
X166485000Y-146350000D03*
X169255000Y-146350000D03*
X172025000Y-146350000D03*
X174795000Y-146350000D03*
D14*
X158140000Y-144930000D03*
X183140000Y-144930000D03*
D12*
X211455000Y-143510000D03*
D13*
X214225000Y-143510000D03*
X216995000Y-143510000D03*
X219765000Y-143510000D03*
X222535000Y-143510000D03*
X212840000Y-146350000D03*
X215610000Y-146350000D03*
X218380000Y-146350000D03*
X221150000Y-146350000D03*
D14*
X204495000Y-144930000D03*
X229495000Y-144930000D03*
D15*
X151041100Y-116433600D03*
X153581100Y-116433600D03*
X156121100Y-116433600D03*
X158661100Y-116433600D03*
X161201100Y-96113600D03*
X161201100Y-116433600D03*
X163741100Y-96113600D03*
X163741100Y-116433600D03*
X166281100Y-96113600D03*
X166281100Y-116433600D03*
X168821100Y-96113600D03*
X168821100Y-116433600D03*
X171361100Y-96113600D03*
X171361100Y-116433600D03*
X173901100Y-96113600D03*
X173901100Y-116433600D03*
X176441100Y-96113600D03*
X176441100Y-116433600D03*
X178981100Y-96113600D03*
X178981100Y-116433600D03*
X181521100Y-96113600D03*
X181521100Y-116433600D03*
X184061100Y-96113600D03*
X184061100Y-116433600D03*
X186601100Y-96113600D03*
X186601100Y-116433600D03*
X189141100Y-96113600D03*
X189141100Y-116433600D03*
D16*
X147574000Y-71120000D03*
D17*
X147574000Y-68580000D03*
X147574000Y-66040000D03*
D16*
X193040000Y-71120000D03*
D17*
X193040000Y-68580000D03*
X193040000Y-66040000D03*
D16*
X239395000Y-71120000D03*
D17*
X239395000Y-68580000D03*
X239395000Y-66040000D03*
D16*
X147574000Y-147828000D03*
D17*
X147574000Y-145288000D03*
X147574000Y-142748000D03*
D16*
X193294000Y-147828000D03*
D17*
X193294000Y-145288000D03*
X193294000Y-142748000D03*
D16*
X239395000Y-147955000D03*
D17*
X239395000Y-145415000D03*
X239395000Y-142875000D03*
D16*
X135128000Y-116840000D03*
X135128000Y-112014000D03*
X135128000Y-107188000D03*
X135128000Y-102362000D03*
X135128000Y-97536000D03*
X135128000Y-92710000D03*
X111188500Y-106108500D03*
X111188500Y-110680500D03*
X111188500Y-101536500D03*
D11*
X245110000Y-62230000D03*
D18*
X153924000Y-129286000D03*
X150114000Y-129286000D03*
X118872000Y-87884000D03*
X118872000Y-91440000D03*
X118872000Y-106172000D03*
X150876000Y-76708000D03*
X155194000Y-76708000D03*
X219202000Y-137160000D03*
X172720000Y-136906000D03*
X128270000Y-137414000D03*
X222504000Y-76708000D03*
X176276000Y-76708000D03*
X130810000Y-76454000D03*
X114046000Y-76200000D03*
X160020000Y-76200000D03*
X206248000Y-76708000D03*
X110490000Y-137160000D03*
X156972000Y-137160000D03*
X203200000Y-136398000D03*
X153924000Y-91186000D03*
X171196000Y-112522000D03*
X171196000Y-109474000D03*
X153924000Y-109474000D03*
X193040000Y-100584000D03*
X197866000Y-100584000D03*
X197612000Y-74676000D03*
X242570000Y-118364000D03*
X186436000Y-119634000D03*
X186436000Y-121920000D03*
X143002000Y-123444000D03*
X143002000Y-121666000D03*
X143256000Y-101600000D03*
X166370000Y-119888000D03*
X166370000Y-122174000D03*
X233426000Y-90424000D03*
X241046000Y-90424000D03*
X186436000Y-90424000D03*
X186436000Y-93726000D03*
X168910000Y-122428000D03*
X168910000Y-119888000D03*
X131572000Y-84582000D03*
X132080000Y-120650000D03*
X177800000Y-80772000D03*
X173990000Y-90678000D03*
X173990000Y-93726000D03*
X181610000Y-112776000D03*
X192532000Y-112776000D03*
X196850000Y-112776000D03*
X224536000Y-80010000D03*
X132842000Y-134112000D03*
X130048000Y-123444000D03*
X130048000Y-120904000D03*
X130048000Y-117348000D03*
X177038000Y-133604000D03*
X163576000Y-119888000D03*
X163576000Y-122428000D03*
X192786000Y-96266000D03*
X197104000Y-96266000D03*
X223266000Y-132588000D03*
X223266000Y-122936000D03*
X178816000Y-93218000D03*
X178816000Y-90424000D03*
X155448000Y-85344000D03*
X150876000Y-85344000D03*
X171450000Y-93218000D03*
X171450000Y-90678000D03*
X177292000Y-88392000D03*
X181864000Y-86106000D03*
X184150000Y-119888000D03*
X184150000Y-121666000D03*
X219710000Y-119888000D03*
X239522000Y-119888000D03*
X146558000Y-103124000D03*
X146558000Y-121666000D03*
X146558000Y-123698000D03*
X146558000Y-125730000D03*
X176530000Y-119888000D03*
X176530000Y-121920000D03*
X173736000Y-119888000D03*
X238252000Y-125222000D03*
X233934000Y-125222000D03*
X178562000Y-125222000D03*
D19*
X153924000Y-129286000D02*
X150114000Y-129286000D01*
X118872000Y-91440000D02*
X118872000Y-87884000D01*
X118808500Y-106108500D02*
X111188500Y-106108500D01*
X118872000Y-106172000D02*
X118808500Y-106108500D01*
X155194000Y-76708000D02*
X150876000Y-76708000D01*
X144018000Y-71120000D02*
X144018000Y-64770000D01*
X176180000Y-64674000D02*
X175768000Y-64262000D01*
X175768000Y-64262000D02*
X175260000Y-64262000D01*
X176180000Y-65278000D02*
X176180000Y-67310000D01*
X156718000Y-64262000D02*
X175260000Y-64262000D01*
X176180000Y-65278000D02*
X176180000Y-64674000D01*
X151384000Y-64262000D02*
X150622000Y-63500000D01*
X150622000Y-63500000D02*
X145288000Y-63500000D01*
X145288000Y-63500000D02*
X144018000Y-64770000D01*
X156718000Y-64262000D02*
X151384000Y-64262000D01*
X242570000Y-72390000D02*
X244348000Y-74168000D01*
X244348000Y-74168000D02*
X244348000Y-74422000D01*
X242570000Y-116433600D02*
X244348000Y-116433600D01*
X189141100Y-116433600D02*
X193294000Y-116433600D01*
X193294000Y-116433600D02*
X242570000Y-116433600D01*
X244348000Y-116433600D02*
X244348000Y-116586000D01*
X239395000Y-71120000D02*
X241300000Y-71120000D01*
X241300000Y-71120000D02*
X242570000Y-72390000D01*
X244348000Y-74422000D02*
X244348000Y-74422000D01*
X244348000Y-74422000D02*
X244348000Y-116586000D01*
X244348000Y-145542000D02*
X242316000Y-147574000D01*
X244348000Y-116586000D02*
X244348000Y-145542000D01*
X198374000Y-69850000D02*
X198882000Y-69342000D01*
X197104000Y-71120000D02*
X196850000Y-71120000D01*
X198374000Y-69850000D02*
X197104000Y-71120000D01*
X241935000Y-147955000D02*
X242316000Y-147574000D01*
X241935000Y-147955000D02*
X239395000Y-147955000D01*
X242316000Y-147574000D02*
X242570000Y-147320000D01*
X111188500Y-101536500D02*
X119951500Y-101536500D01*
X158750000Y-121920000D02*
X158750000Y-116522500D01*
X158115000Y-122555000D02*
X158750000Y-121920000D01*
X121285000Y-122555000D02*
X158115000Y-122555000D01*
X120650000Y-121920000D02*
X121285000Y-122555000D01*
X120650000Y-102235000D02*
X120650000Y-121920000D01*
X119951500Y-101536500D02*
X120650000Y-102235000D01*
X158750000Y-116522500D02*
X158661100Y-116433600D01*
X222535000Y-143510000D02*
X222535000Y-141255000D01*
X219456000Y-137414000D02*
X219202000Y-137160000D01*
X219456000Y-138176000D02*
X219456000Y-137414000D01*
X222535000Y-141255000D02*
X219456000Y-138176000D01*
X222535000Y-143510000D02*
X222535000Y-143541000D01*
X222535000Y-143541000D02*
X224282000Y-145288000D01*
X224282000Y-145288000D02*
X224282000Y-149098000D01*
X193294000Y-147828000D02*
X196342000Y-147828000D01*
X236982000Y-148082000D02*
X239268000Y-148082000D01*
X235966000Y-149098000D02*
X236982000Y-148082000D01*
X197612000Y-149098000D02*
X224282000Y-149098000D01*
X224282000Y-149098000D02*
X235966000Y-149098000D01*
X196342000Y-147828000D02*
X197612000Y-149098000D01*
X239268000Y-148082000D02*
X239395000Y-147955000D01*
X177800000Y-148844000D02*
X177800000Y-147828000D01*
X178816000Y-148844000D02*
X177800000Y-148844000D01*
X177800000Y-148844000D02*
X151384000Y-148844000D01*
X150368000Y-147828000D02*
X147574000Y-147828000D01*
X151384000Y-148844000D02*
X150368000Y-147828000D01*
X176180000Y-143510000D02*
X176276000Y-143510000D01*
X176276000Y-143510000D02*
X177800000Y-145034000D01*
X177800000Y-145034000D02*
X177800000Y-147828000D01*
X178816000Y-148844000D02*
X189484000Y-148844000D01*
X189484000Y-148844000D02*
X189992000Y-148336000D01*
X190500000Y-147828000D02*
X193294000Y-147828000D01*
X189992000Y-148336000D02*
X190500000Y-147828000D01*
X176180000Y-143510000D02*
X176180000Y-141828000D01*
X173036000Y-137222000D02*
X172720000Y-136906000D01*
X173036000Y-138684000D02*
X173036000Y-137222000D01*
X176180000Y-141828000D02*
X173036000Y-138684000D01*
X130460000Y-143510000D02*
X130556000Y-143510000D01*
X130556000Y-143510000D02*
X132334000Y-145288000D01*
X132334000Y-145288000D02*
X132334000Y-146812000D01*
X132334000Y-146812000D02*
X134366000Y-148844000D01*
X134366000Y-148844000D02*
X144018000Y-148844000D01*
X144018000Y-148844000D02*
X145034000Y-147828000D01*
X145034000Y-147828000D02*
X147574000Y-147828000D01*
X130460000Y-143510000D02*
X130460000Y-142590000D01*
X128586000Y-137730000D02*
X128270000Y-137414000D01*
X128586000Y-140716000D02*
X128586000Y-137730000D01*
X130460000Y-142590000D02*
X128586000Y-140716000D01*
X222504000Y-73914000D02*
X229870000Y-73914000D01*
X232664000Y-71120000D02*
X239395000Y-71120000D01*
X229870000Y-73914000D02*
X232664000Y-71120000D01*
X222535000Y-67310000D02*
X222758000Y-67310000D01*
X222758000Y-67310000D02*
X224282000Y-68834000D01*
X222504000Y-72390000D02*
X222504000Y-73914000D01*
X222504000Y-73914000D02*
X222504000Y-76708000D01*
X224282000Y-70612000D02*
X222504000Y-72390000D01*
X224282000Y-68834000D02*
X224282000Y-70612000D01*
X222535000Y-65055000D02*
X222535000Y-67310000D01*
X198882000Y-69342000D02*
X203962000Y-64262000D01*
X203962000Y-64262000D02*
X221742000Y-64262000D01*
X221742000Y-64262000D02*
X222535000Y-65055000D01*
X176276000Y-73914000D02*
X188722000Y-73914000D01*
X190246000Y-71120000D02*
X193040000Y-71120000D01*
X189484000Y-71882000D02*
X190246000Y-71120000D01*
X189484000Y-73152000D02*
X189484000Y-71882000D01*
X188722000Y-73914000D02*
X189484000Y-73152000D01*
X176276000Y-74676000D02*
X176276000Y-76708000D01*
X176276000Y-67310000D02*
X177292000Y-68326000D01*
X176276000Y-71882000D02*
X176276000Y-73914000D01*
X176276000Y-73914000D02*
X176276000Y-74676000D01*
X177292000Y-70866000D02*
X176276000Y-71882000D01*
X177292000Y-68326000D02*
X177292000Y-70866000D01*
X193040000Y-71120000D02*
X196850000Y-71120000D01*
X158661100Y-116433600D02*
X158661100Y-114642900D01*
X188976000Y-114808000D02*
X188976000Y-116268500D01*
X188214000Y-114046000D02*
X188976000Y-114808000D01*
X159258000Y-114046000D02*
X188214000Y-114046000D01*
X158661100Y-114642900D02*
X159258000Y-114046000D01*
X188976000Y-116268500D02*
X189141100Y-116433600D01*
X176180000Y-67310000D02*
X176276000Y-67310000D01*
X130810000Y-72644000D02*
X138938000Y-72644000D01*
X138938000Y-72644000D02*
X140462000Y-71120000D01*
X140462000Y-71120000D02*
X144018000Y-71120000D01*
X144018000Y-71120000D02*
X147574000Y-71120000D01*
X130460000Y-67310000D02*
X130460000Y-67468000D01*
X130460000Y-67468000D02*
X131318000Y-68326000D01*
X130810000Y-71628000D02*
X130810000Y-72644000D01*
X130810000Y-72644000D02*
X130810000Y-76454000D01*
X131318000Y-71120000D02*
X130810000Y-71628000D01*
X131318000Y-68326000D02*
X131318000Y-71120000D01*
X122150000Y-67310000D02*
X122150000Y-66524000D01*
X122150000Y-66524000D02*
X120650000Y-65024000D01*
X114046000Y-72644000D02*
X114046000Y-76200000D01*
X116078000Y-70612000D02*
X114046000Y-72644000D01*
X116078000Y-66548000D02*
X116078000Y-70612000D01*
X117602000Y-65024000D02*
X116078000Y-66548000D01*
X120650000Y-65024000D02*
X117602000Y-65024000D01*
X167870000Y-67310000D02*
X167870000Y-66778000D01*
X167870000Y-66778000D02*
X166624000Y-65532000D01*
X160020000Y-73660000D02*
X160020000Y-76200000D01*
X161544000Y-72136000D02*
X160020000Y-73660000D01*
X161544000Y-67564000D02*
X161544000Y-72136000D01*
X163576000Y-65532000D02*
X161544000Y-67564000D01*
X166624000Y-65532000D02*
X163576000Y-65532000D01*
X214225000Y-67310000D02*
X214225000Y-66651000D01*
X214225000Y-66651000D02*
X213106000Y-65532000D01*
X206248000Y-73660000D02*
X206248000Y-76708000D01*
X207772000Y-72136000D02*
X206248000Y-73660000D01*
X207772000Y-67310000D02*
X207772000Y-72136000D01*
X209550000Y-65532000D02*
X207772000Y-67310000D01*
X213106000Y-65532000D02*
X209550000Y-65532000D01*
X122150000Y-143510000D02*
X122150000Y-142264000D01*
X110490000Y-138684000D02*
X110490000Y-137160000D01*
X112570000Y-140764000D02*
X110490000Y-138684000D01*
X120650000Y-140764000D02*
X112570000Y-140764000D01*
X122150000Y-142264000D02*
X120650000Y-140764000D01*
X167870000Y-143510000D02*
X167870000Y-142518000D01*
X156972000Y-137414000D02*
X156972000Y-137160000D01*
X160068000Y-140510000D02*
X156972000Y-137414000D01*
X165862000Y-140510000D02*
X160068000Y-140510000D01*
X167870000Y-142518000D02*
X165862000Y-140510000D01*
X214225000Y-143510000D02*
X214225000Y-142851000D01*
X214225000Y-142851000D02*
X212090000Y-140716000D01*
X203200000Y-137160000D02*
X203200000Y-136398000D01*
X206756000Y-140716000D02*
X203200000Y-137160000D01*
X212090000Y-140716000D02*
X206756000Y-140716000D01*
X153924000Y-93980000D02*
X153924000Y-109474000D01*
X153924000Y-91186000D02*
X153924000Y-93980000D01*
X171196000Y-109474000D02*
X171196000Y-112522000D01*
X169418000Y-96710500D02*
X168821100Y-96113600D01*
X169418000Y-99568000D02*
X169418000Y-96710500D01*
X170434000Y-100584000D02*
X169418000Y-99568000D01*
X193040000Y-100584000D02*
X170434000Y-100584000D01*
X198628000Y-100584000D02*
X197866000Y-100584000D01*
X200406000Y-98806000D02*
X198628000Y-100584000D01*
X200406000Y-85090000D02*
X200406000Y-98806000D01*
X197612000Y-82296000D02*
X200406000Y-85090000D01*
X197612000Y-74676000D02*
X197612000Y-82296000D01*
X215138000Y-121920000D02*
X218694000Y-118364000D01*
X218694000Y-118364000D02*
X242570000Y-118364000D01*
X186601100Y-119468900D02*
X186436000Y-119634000D01*
X186601100Y-116433600D02*
X186601100Y-119468900D01*
X186436000Y-121920000D02*
X206248000Y-121920000D01*
X206248000Y-121920000D02*
X215138000Y-121920000D01*
X147574000Y-142748000D02*
X143764000Y-142748000D01*
X143764000Y-142748000D02*
X143002000Y-141986000D01*
X143002000Y-141986000D02*
X143002000Y-123444000D01*
X143256000Y-103378000D02*
X143256000Y-101600000D01*
X143002000Y-121666000D02*
X143256000Y-121412000D01*
X143256000Y-121412000D02*
X143256000Y-103378000D01*
X185166000Y-135636000D02*
X185166000Y-130302000D01*
X187706000Y-142748000D02*
X185166000Y-140208000D01*
X185166000Y-140208000D02*
X185166000Y-135636000D01*
X193294000Y-142748000D02*
X187706000Y-142748000D01*
X166281100Y-119799100D02*
X166281100Y-116433600D01*
X166370000Y-119888000D02*
X166281100Y-119799100D01*
X166370000Y-128778000D02*
X166370000Y-122174000D01*
X167132000Y-129540000D02*
X166370000Y-128778000D01*
X184404000Y-129540000D02*
X167132000Y-129540000D01*
X185166000Y-130302000D02*
X184404000Y-129540000D01*
X239776000Y-90424000D02*
X241046000Y-90424000D01*
X239776000Y-90424000D02*
X233426000Y-90424000D01*
X186436000Y-93726000D02*
X186436000Y-90424000D01*
X131572000Y-117602000D02*
X131572000Y-120142000D01*
X131572000Y-120142000D02*
X132080000Y-120650000D01*
X131572000Y-84582000D02*
X131572000Y-91186000D01*
X131572000Y-91186000D02*
X131572000Y-117602000D01*
X168910000Y-122428000D02*
X168910000Y-119888000D01*
X173901100Y-96113600D02*
X173901100Y-93814900D01*
X177800000Y-80772000D02*
X174752000Y-83820000D01*
X174752000Y-83820000D02*
X174752000Y-89916000D01*
X174752000Y-89916000D02*
X173901100Y-90766900D01*
X173990000Y-90678000D02*
X173901100Y-90766900D01*
X173901100Y-93814900D02*
X173990000Y-93726000D01*
X192532000Y-112776000D02*
X181610000Y-112776000D01*
X224536000Y-112776000D02*
X196850000Y-112776000D01*
X225806000Y-111506000D02*
X224536000Y-112776000D01*
X225806000Y-89408000D02*
X225806000Y-111506000D01*
X224536000Y-88138000D02*
X225806000Y-89408000D01*
X224536000Y-80010000D02*
X224536000Y-88138000D01*
X132842000Y-131826000D02*
X132842000Y-134112000D01*
X131826000Y-130810000D02*
X132842000Y-131826000D01*
X130810000Y-130810000D02*
X131826000Y-130810000D01*
X130048000Y-130048000D02*
X130810000Y-130810000D01*
X130048000Y-123444000D02*
X130048000Y-130048000D01*
X130048000Y-117348000D02*
X130048000Y-120904000D01*
X163741100Y-116433600D02*
X163741100Y-119722900D01*
X163576000Y-119888000D02*
X163741100Y-119722900D01*
X163576000Y-130302000D02*
X163576000Y-122428000D01*
X165354000Y-132080000D02*
X163576000Y-130302000D01*
X176530000Y-132080000D02*
X165354000Y-132080000D01*
X177038000Y-132588000D02*
X176530000Y-132080000D01*
X177038000Y-132588000D02*
X177038000Y-133604000D01*
X192786000Y-96266000D02*
X197104000Y-96266000D01*
X223266000Y-122936000D02*
X223266000Y-132588000D01*
X178816000Y-90424000D02*
X178816000Y-93218000D01*
X150876000Y-85344000D02*
X155448000Y-85344000D01*
X180848000Y-87122000D02*
X179578000Y-88392000D01*
X179578000Y-88392000D02*
X178562000Y-88392000D01*
X171450000Y-90678000D02*
X171450000Y-93218000D01*
X178562000Y-88392000D02*
X177292000Y-88392000D01*
X181864000Y-86106000D02*
X180848000Y-87122000D01*
X171196000Y-95948500D02*
X171361100Y-96113600D01*
X184150000Y-121666000D02*
X184150000Y-119888000D01*
X239522000Y-119888000D02*
X219710000Y-119888000D01*
X146558000Y-106934000D02*
X146558000Y-103124000D01*
X146558000Y-121666000D02*
X146558000Y-106934000D01*
X146558000Y-106934000D02*
X146558000Y-106680000D01*
X146558000Y-125730000D02*
X146558000Y-123698000D01*
X176530000Y-121920000D02*
X176530000Y-119888000D01*
X173736000Y-122174000D02*
X173736000Y-124206000D01*
X173736000Y-122174000D02*
X173736000Y-119888000D01*
X174752000Y-125222000D02*
X175006000Y-125222000D01*
X173736000Y-124206000D02*
X174752000Y-125222000D01*
X238252000Y-125222000D02*
X233934000Y-125222000D01*
X178562000Y-125222000D02*
X175006000Y-125222000D01*
M02*
