M48
;DRILL file {KiCad 4.0.7-e2-6376~60~ubuntu17.10.1} date Mon Feb  5 04:30:38 2018
;FORMAT={-:-/ absolute / metric / decimal}
FMAT,2
METRIC,TZ
T1C0.400
T2C0.800
T3C1.000
T4C3.200
T5C3.800
%
G90
G05
M71
T1
X110.49Y-137.16
X114.046Y-76.2
X118.872Y-87.884
X118.872Y-91.44
X118.872Y-106.172
X128.27Y-137.414
X130.048Y-117.348
X130.048Y-120.904
X130.048Y-123.444
X130.81Y-76.454
X131.572Y-84.582
X132.08Y-120.65
X132.842Y-134.112
X143.002Y-121.666
X143.002Y-123.444
X143.256Y-101.6
X146.558Y-103.124
X146.558Y-121.666
X146.558Y-123.698
X146.558Y-125.73
X150.114Y-129.286
X150.876Y-76.708
X150.876Y-85.344
X153.924Y-91.186
X153.924Y-109.474
X153.924Y-129.286
X155.194Y-76.708
X155.448Y-85.344
X156.972Y-137.16
X160.02Y-76.2
X163.576Y-119.888
X163.576Y-122.428
X166.37Y-119.888
X166.37Y-122.174
X168.91Y-119.888
X168.91Y-122.428
X171.196Y-109.474
X171.196Y-112.522
X171.45Y-90.678
X171.45Y-93.218
X172.72Y-136.906
X173.736Y-119.888
X173.99Y-90.678
X173.99Y-93.726
X176.276Y-76.708
X176.53Y-119.888
X176.53Y-121.92
X177.038Y-133.604
X177.292Y-88.392
X177.8Y-80.772
X178.562Y-125.222
X178.816Y-90.424
X178.816Y-93.218
X181.61Y-112.776
X181.864Y-86.106
X184.15Y-119.888
X184.15Y-121.666
X186.436Y-90.424
X186.436Y-93.726
X186.436Y-119.634
X186.436Y-121.92
X192.532Y-112.776
X192.786Y-96.266
X193.04Y-100.584
X196.85Y-112.776
X197.104Y-96.266
X197.612Y-74.676
X197.866Y-100.584
X203.2Y-136.398
X206.248Y-76.708
X219.202Y-137.16
X219.71Y-119.888
X222.504Y-76.708
X223.266Y-122.936
X223.266Y-132.588
X224.536Y-80.01
X233.426Y-90.424
X233.934Y-125.222
X238.252Y-125.222
X239.522Y-119.888
X241.046Y-90.424
X242.57Y-118.364
T2
X151.041Y-116.434
X153.581Y-116.434
X156.121Y-116.434
X158.661Y-116.434
X161.201Y-96.114
X161.201Y-116.434
X163.741Y-96.114
X163.741Y-116.434
X166.281Y-96.114
X166.281Y-116.434
X168.821Y-96.114
X168.821Y-116.434
X171.361Y-96.114
X171.361Y-116.434
X173.901Y-96.114
X173.901Y-116.434
X176.441Y-96.114
X176.441Y-116.434
X178.981Y-96.114
X178.981Y-116.434
X181.521Y-96.114
X181.521Y-116.434
X184.061Y-96.114
X184.061Y-116.434
X186.601Y-96.114
X186.601Y-116.434
X189.141Y-96.114
X189.141Y-116.434
T3
X111.188Y-101.536
X111.188Y-106.108
X111.188Y-110.68
X119.38Y-67.31
X119.38Y-143.51
X120.765Y-70.15
X120.765Y-146.35
X122.15Y-67.31
X122.15Y-143.51
X123.535Y-70.15
X123.535Y-146.35
X124.92Y-67.31
X124.92Y-143.51
X126.305Y-70.15
X126.305Y-146.35
X127.69Y-67.31
X127.69Y-143.51
X129.075Y-70.15
X129.075Y-146.35
X130.46Y-67.31
X130.46Y-143.51
X135.128Y-92.71
X135.128Y-97.536
X135.128Y-102.362
X135.128Y-107.188
X135.128Y-112.014
X135.128Y-116.84
X147.574Y-66.04
X147.574Y-68.58
X147.574Y-71.12
X147.574Y-142.748
X147.574Y-145.288
X147.574Y-147.828
X165.1Y-67.31
X165.1Y-143.51
X166.485Y-70.15
X166.485Y-146.35
X167.87Y-67.31
X167.87Y-143.51
X169.255Y-70.15
X169.255Y-146.35
X170.64Y-67.31
X170.64Y-143.51
X172.025Y-70.15
X172.025Y-146.35
X173.41Y-67.31
X173.41Y-143.51
X174.795Y-70.15
X174.795Y-146.35
X176.18Y-67.31
X176.18Y-143.51
X193.04Y-66.04
X193.04Y-68.58
X193.04Y-71.12
X193.294Y-142.748
X193.294Y-145.288
X193.294Y-147.828
X211.455Y-67.31
X211.455Y-143.51
X212.84Y-70.15
X212.84Y-146.35
X214.225Y-67.31
X214.225Y-143.51
X215.61Y-70.15
X215.61Y-146.35
X216.995Y-67.31
X216.995Y-143.51
X218.38Y-70.15
X218.38Y-146.35
X219.765Y-67.31
X219.765Y-143.51
X221.15Y-70.15
X221.15Y-146.35
X222.535Y-67.31
X222.535Y-143.51
X239.395Y-66.04
X239.395Y-68.58
X239.395Y-71.12
X239.395Y-142.875
X239.395Y-145.415
X239.395Y-147.955
T4
X112.42Y-68.73
X112.42Y-144.93
X137.42Y-68.73
X137.42Y-144.93
X158.14Y-68.73
X158.14Y-144.93
X183.14Y-68.73
X183.14Y-144.93
X204.495Y-68.73
X204.495Y-144.93
X229.495Y-68.73
X229.495Y-144.93
T5
X105.41Y-62.23
X105.41Y-151.13
X245.11Y-62.23
X245.11Y-151.13
T0
M30
