G04 #@! TF.FileFunction,Copper,L1,Top,Signal*
%FSLAX46Y46*%
G04 Gerber Fmt 4.6, Leading zero omitted, Abs format (unit mm)*
G04 Created by KiCad (PCBNEW 4.0.7-e2-6376~60~ubuntu17.10.1) date Mon Feb  5 04:30:27 2018*
%MOMM*%
%LPD*%
G01*
G04 APERTURE LIST*
%ADD10C,0.100000*%
%ADD11C,4.064000*%
%ADD12R,0.900000X0.800000*%
%ADD13R,1.300000X1.500000*%
%ADD14R,0.900000X1.200000*%
%ADD15R,0.800000X0.900000*%
%ADD16R,1.600000X1.600000*%
%ADD17C,1.600000*%
%ADD18C,4.000000*%
%ADD19R,1.500000X1.300000*%
%ADD20O,1.200000X2.000000*%
%ADD21R,1.700000X1.700000*%
%ADD22O,1.700000X1.700000*%
%ADD23C,0.600000*%
%ADD24C,0.500000*%
G04 APERTURE END LIST*
D10*
D11*
X245110000Y-151130000D03*
X105410000Y-151130000D03*
X105410000Y-62230000D03*
D12*
X123714000Y-78298000D03*
X123714000Y-80198000D03*
X125714000Y-79248000D03*
D13*
X142494000Y-79074000D03*
X142494000Y-76374000D03*
D14*
X147574000Y-78824000D03*
X147574000Y-76624000D03*
D12*
X169180000Y-79060000D03*
X169180000Y-80960000D03*
X171180000Y-80010000D03*
D13*
X187960000Y-80090000D03*
X187960000Y-77390000D03*
D14*
X193040000Y-79840000D03*
X193040000Y-77640000D03*
D12*
X215535000Y-78806000D03*
X215535000Y-80706000D03*
X217535000Y-79756000D03*
D13*
X233299000Y-79582000D03*
X233299000Y-76882000D03*
D14*
X239395000Y-79332000D03*
X239395000Y-77132000D03*
D15*
X121732000Y-135112000D03*
X123632000Y-135112000D03*
X122682000Y-133112000D03*
D13*
X142494000Y-134286000D03*
X142494000Y-136986000D03*
D14*
X146558000Y-134536000D03*
X146558000Y-136736000D03*
D15*
X166436000Y-134604000D03*
X168336000Y-134604000D03*
X167386000Y-132604000D03*
D13*
X188722000Y-133778000D03*
X188722000Y-136478000D03*
D14*
X193294000Y-134028000D03*
X193294000Y-136228000D03*
D15*
X213553000Y-133588000D03*
X215453000Y-133588000D03*
X214503000Y-131588000D03*
D13*
X234315000Y-132762000D03*
X234315000Y-135462000D03*
D14*
X238379000Y-133520000D03*
X238379000Y-135720000D03*
D16*
X119380000Y-67310000D03*
D17*
X122150000Y-67310000D03*
X124920000Y-67310000D03*
X127690000Y-67310000D03*
X130460000Y-67310000D03*
X120765000Y-70150000D03*
X123535000Y-70150000D03*
X126305000Y-70150000D03*
X129075000Y-70150000D03*
D18*
X112420000Y-68730000D03*
X137420000Y-68730000D03*
D16*
X165100000Y-67310000D03*
D17*
X167870000Y-67310000D03*
X170640000Y-67310000D03*
X173410000Y-67310000D03*
X176180000Y-67310000D03*
X166485000Y-70150000D03*
X169255000Y-70150000D03*
X172025000Y-70150000D03*
X174795000Y-70150000D03*
D18*
X158140000Y-68730000D03*
X183140000Y-68730000D03*
D16*
X211455000Y-67310000D03*
D17*
X214225000Y-67310000D03*
X216995000Y-67310000D03*
X219765000Y-67310000D03*
X222535000Y-67310000D03*
X212840000Y-70150000D03*
X215610000Y-70150000D03*
X218380000Y-70150000D03*
X221150000Y-70150000D03*
D18*
X204495000Y-68730000D03*
X229495000Y-68730000D03*
D16*
X119380000Y-143510000D03*
D17*
X122150000Y-143510000D03*
X124920000Y-143510000D03*
X127690000Y-143510000D03*
X130460000Y-143510000D03*
X120765000Y-146350000D03*
X123535000Y-146350000D03*
X126305000Y-146350000D03*
X129075000Y-146350000D03*
D18*
X112420000Y-144930000D03*
X137420000Y-144930000D03*
D16*
X165100000Y-143510000D03*
D17*
X167870000Y-143510000D03*
X170640000Y-143510000D03*
X173410000Y-143510000D03*
X176180000Y-143510000D03*
X166485000Y-146350000D03*
X169255000Y-146350000D03*
X172025000Y-146350000D03*
X174795000Y-146350000D03*
D18*
X158140000Y-144930000D03*
X183140000Y-144930000D03*
D16*
X211455000Y-143510000D03*
D17*
X214225000Y-143510000D03*
X216995000Y-143510000D03*
X219765000Y-143510000D03*
X222535000Y-143510000D03*
X212840000Y-146350000D03*
X215610000Y-146350000D03*
X218380000Y-146350000D03*
X221150000Y-146350000D03*
D18*
X204495000Y-144930000D03*
X229495000Y-144930000D03*
D12*
X130794000Y-80198000D03*
X130794000Y-78298000D03*
X128794000Y-79248000D03*
X176260000Y-80960000D03*
X176260000Y-79060000D03*
X174260000Y-80010000D03*
X222615000Y-80706000D03*
X222615000Y-78806000D03*
X220615000Y-79756000D03*
X128286000Y-133162000D03*
X128286000Y-135062000D03*
X130286000Y-134112000D03*
X172482000Y-132654000D03*
X172482000Y-134554000D03*
X174482000Y-133604000D03*
X219091000Y-131638000D03*
X219091000Y-133538000D03*
X221091000Y-132588000D03*
D13*
X114046000Y-77898000D03*
X114046000Y-80598000D03*
X119126000Y-77898000D03*
X119126000Y-80598000D03*
D19*
X135048000Y-78740000D03*
X137748000Y-78740000D03*
D13*
X147574000Y-85170000D03*
X147574000Y-82470000D03*
X160020000Y-78660000D03*
X160020000Y-81360000D03*
X165100000Y-78660000D03*
X165100000Y-81360000D03*
D19*
X180260000Y-80010000D03*
X182960000Y-80010000D03*
D13*
X193040000Y-86186000D03*
X193040000Y-83486000D03*
X206375000Y-78914000D03*
X206375000Y-81614000D03*
X211455000Y-78914000D03*
X211455000Y-81614000D03*
D19*
X226361000Y-79756000D03*
X229061000Y-79756000D03*
D13*
X239395000Y-85678000D03*
X239395000Y-82978000D03*
X110490000Y-134954000D03*
X110490000Y-132254000D03*
X116078000Y-134954000D03*
X116078000Y-132254000D03*
D19*
X135048000Y-134112000D03*
X137748000Y-134112000D03*
D13*
X146558000Y-128698000D03*
X146558000Y-131398000D03*
X156718000Y-134446000D03*
X156718000Y-131746000D03*
X160782000Y-134446000D03*
X160782000Y-131746000D03*
D19*
X179752000Y-133604000D03*
X182452000Y-133604000D03*
D13*
X193294000Y-127682000D03*
X193294000Y-130382000D03*
X203327000Y-133938000D03*
X203327000Y-131238000D03*
X208407000Y-133938000D03*
X208407000Y-131238000D03*
D19*
X225853000Y-132588000D03*
X228553000Y-132588000D03*
D13*
X238379000Y-127174000D03*
X238379000Y-129874000D03*
D20*
X151041100Y-116433600D03*
X153581100Y-116433600D03*
X156121100Y-116433600D03*
X158661100Y-116433600D03*
X161201100Y-96113600D03*
X161201100Y-116433600D03*
X163741100Y-96113600D03*
X163741100Y-116433600D03*
X166281100Y-96113600D03*
X166281100Y-116433600D03*
X168821100Y-96113600D03*
X168821100Y-116433600D03*
X171361100Y-96113600D03*
X171361100Y-116433600D03*
X173901100Y-96113600D03*
X173901100Y-116433600D03*
X176441100Y-96113600D03*
X176441100Y-116433600D03*
X178981100Y-96113600D03*
X178981100Y-116433600D03*
X181521100Y-96113600D03*
X181521100Y-116433600D03*
X184061100Y-96113600D03*
X184061100Y-116433600D03*
X186601100Y-96113600D03*
X186601100Y-116433600D03*
X189141100Y-96113600D03*
X189141100Y-116433600D03*
D21*
X147574000Y-71120000D03*
D22*
X147574000Y-68580000D03*
X147574000Y-66040000D03*
D21*
X193040000Y-71120000D03*
D22*
X193040000Y-68580000D03*
X193040000Y-66040000D03*
D21*
X239395000Y-71120000D03*
D22*
X239395000Y-68580000D03*
X239395000Y-66040000D03*
D21*
X147574000Y-147828000D03*
D22*
X147574000Y-145288000D03*
X147574000Y-142748000D03*
D21*
X193294000Y-147828000D03*
D22*
X193294000Y-145288000D03*
X193294000Y-142748000D03*
D21*
X239395000Y-147955000D03*
D22*
X239395000Y-145415000D03*
X239395000Y-142875000D03*
D21*
X135128000Y-116840000D03*
X135128000Y-112014000D03*
X135128000Y-107188000D03*
X135128000Y-102362000D03*
X135128000Y-97536000D03*
X135128000Y-92710000D03*
X111188500Y-106108500D03*
X111188500Y-110680500D03*
X111188500Y-101536500D03*
D11*
X245110000Y-62230000D03*
D23*
X153924000Y-129286000D03*
X150114000Y-129286000D03*
X118872000Y-87884000D03*
X118872000Y-91440000D03*
X118872000Y-106172000D03*
X150876000Y-76708000D03*
X155194000Y-76708000D03*
X219202000Y-137160000D03*
X172720000Y-136906000D03*
X128270000Y-137414000D03*
X222504000Y-76708000D03*
X176276000Y-76708000D03*
X130810000Y-76454000D03*
X114046000Y-76200000D03*
X160020000Y-76200000D03*
X206248000Y-76708000D03*
X110490000Y-137160000D03*
X156972000Y-137160000D03*
X203200000Y-136398000D03*
X153924000Y-91186000D03*
X171196000Y-112522000D03*
X171196000Y-109474000D03*
X153924000Y-109474000D03*
X193040000Y-100584000D03*
X197866000Y-100584000D03*
X197612000Y-74676000D03*
X242570000Y-118364000D03*
X186436000Y-119634000D03*
X186436000Y-121920000D03*
X143002000Y-123444000D03*
X143002000Y-121666000D03*
X143256000Y-101600000D03*
X166370000Y-119888000D03*
X166370000Y-122174000D03*
X233426000Y-90424000D03*
X241046000Y-90424000D03*
X186436000Y-90424000D03*
X186436000Y-93726000D03*
X168910000Y-122428000D03*
X168910000Y-119888000D03*
X131572000Y-84582000D03*
X132080000Y-120650000D03*
X177800000Y-80772000D03*
X173990000Y-90678000D03*
X173990000Y-93726000D03*
X181610000Y-112776000D03*
X192532000Y-112776000D03*
X196850000Y-112776000D03*
X224536000Y-80010000D03*
X132842000Y-134112000D03*
X130048000Y-123444000D03*
X130048000Y-120904000D03*
X130048000Y-117348000D03*
X177038000Y-133604000D03*
X163576000Y-119888000D03*
X163576000Y-122428000D03*
X192786000Y-96266000D03*
X197104000Y-96266000D03*
X223266000Y-132588000D03*
X223266000Y-122936000D03*
X178816000Y-93218000D03*
X178816000Y-90424000D03*
X155448000Y-85344000D03*
X150876000Y-85344000D03*
X171450000Y-93218000D03*
X171450000Y-90678000D03*
X177292000Y-88392000D03*
X181864000Y-86106000D03*
X184150000Y-119888000D03*
X184150000Y-121666000D03*
X219710000Y-119888000D03*
X239522000Y-119888000D03*
X146558000Y-103124000D03*
X146558000Y-121666000D03*
X146558000Y-123698000D03*
X146558000Y-125730000D03*
X176530000Y-119888000D03*
X176530000Y-121920000D03*
X173736000Y-119888000D03*
X238252000Y-125222000D03*
X233934000Y-125222000D03*
X178562000Y-125222000D03*
D24*
X222535000Y-141224000D02*
X222631000Y-141224000D01*
X222631000Y-141224000D02*
X222535000Y-141224000D01*
X150114000Y-135382000D02*
X149098000Y-136398000D01*
X148760000Y-136736000D02*
X149098000Y-136398000D01*
X148760000Y-136736000D02*
X146558000Y-136736000D01*
X191008000Y-132334000D02*
X189484000Y-130810000D01*
X189484000Y-130810000D02*
X170942000Y-130810000D01*
X170942000Y-130810000D02*
X169418000Y-129286000D01*
X169418000Y-129286000D02*
X153924000Y-129286000D01*
X150114000Y-129286000D02*
X150114000Y-135382000D01*
X191008000Y-132334000D02*
X191008000Y-136478000D01*
X146896000Y-136398000D02*
X146558000Y-136736000D01*
X199771000Y-131064000D02*
X199771000Y-134915000D01*
X201295000Y-129540000D02*
X199771000Y-131064000D01*
X234823000Y-129540000D02*
X201295000Y-129540000D01*
X236347000Y-129540000D02*
X234823000Y-129540000D01*
X198458000Y-136228000D02*
X199771000Y-134915000D01*
X198458000Y-136228000D02*
X193294000Y-136228000D01*
X236347000Y-129540000D02*
X236220000Y-129540000D01*
X236220000Y-129540000D02*
X236347000Y-129540000D01*
X235331000Y-81280000D02*
X236347000Y-81280000D01*
X236347000Y-81280000D02*
X236220000Y-81280000D01*
X236220000Y-81280000D02*
X236347000Y-81280000D01*
X236347000Y-80264000D02*
X236347000Y-81280000D01*
X236347000Y-81280000D02*
X236347000Y-129540000D01*
X236347000Y-129540000D02*
X236347000Y-131445000D01*
X145288000Y-77216000D02*
X145288000Y-76374000D01*
X145288000Y-76374000D02*
X145288000Y-76454000D01*
X145288000Y-76454000D02*
X145288000Y-76374000D01*
X118872000Y-106172000D02*
X118872000Y-91440000D01*
X145542000Y-76454000D02*
X145542000Y-76374000D01*
X145622000Y-76374000D02*
X145542000Y-76454000D01*
X146130000Y-76374000D02*
X145622000Y-76374000D01*
X145288000Y-85090000D02*
X145288000Y-77216000D01*
X144018000Y-86360000D02*
X145288000Y-85090000D01*
X119634000Y-86360000D02*
X144018000Y-86360000D01*
X118872000Y-87122000D02*
X119634000Y-86360000D01*
X118872000Y-87884000D02*
X118872000Y-87122000D01*
X153581100Y-116433600D02*
X153581100Y-118783100D01*
X118872000Y-118872000D02*
X118872000Y-106172000D01*
X119380000Y-119380000D02*
X118872000Y-118872000D01*
X152984200Y-119380000D02*
X119380000Y-119380000D01*
X153581100Y-118783100D02*
X152984200Y-119380000D01*
X177038000Y-83820000D02*
X157480000Y-83820000D01*
X190754000Y-81026000D02*
X189738000Y-82042000D01*
X189738000Y-82042000D02*
X178816000Y-82042000D01*
X178816000Y-82042000D02*
X177038000Y-83820000D01*
X190754000Y-77390000D02*
X190754000Y-81026000D01*
X150792000Y-76624000D02*
X147574000Y-76624000D01*
X150876000Y-76708000D02*
X150792000Y-76624000D01*
X156210000Y-77724000D02*
X155194000Y-76708000D01*
X156210000Y-82550000D02*
X156210000Y-77724000D01*
X157480000Y-83820000D02*
X156210000Y-82550000D01*
X199199500Y-77660500D02*
X193060500Y-77660500D01*
X193060500Y-77660500D02*
X193040000Y-77640000D01*
X188722000Y-136478000D02*
X188388000Y-136478000D01*
X236347000Y-135462000D02*
X236347000Y-131445000D01*
X236347000Y-131445000D02*
X236347000Y-131064000D01*
X236347000Y-80264000D02*
X236347000Y-76882000D01*
X224663000Y-81280000D02*
X235331000Y-81280000D01*
X222123000Y-83820000D02*
X224663000Y-81280000D01*
X212979000Y-83820000D02*
X222123000Y-83820000D01*
X212471000Y-83312000D02*
X212979000Y-83820000D01*
X204851000Y-83312000D02*
X212471000Y-83312000D01*
X199179000Y-77640000D02*
X199199500Y-77660500D01*
X199199500Y-77660500D02*
X204851000Y-83312000D01*
X234315000Y-135462000D02*
X236347000Y-135462000D01*
X236347000Y-135462000D02*
X238121000Y-135462000D01*
X238121000Y-135462000D02*
X238379000Y-135720000D01*
X188722000Y-136478000D02*
X191008000Y-136478000D01*
X191008000Y-136478000D02*
X191088000Y-136478000D01*
X191088000Y-136478000D02*
X193044000Y-136478000D01*
X193044000Y-136478000D02*
X193294000Y-136228000D01*
X142494000Y-136986000D02*
X146308000Y-136986000D01*
X146308000Y-136986000D02*
X146558000Y-136736000D01*
X142494000Y-76374000D02*
X145288000Y-76374000D01*
X145288000Y-76374000D02*
X145542000Y-76374000D01*
X145542000Y-76374000D02*
X147324000Y-76374000D01*
X147324000Y-76374000D02*
X147574000Y-76624000D01*
X233299000Y-76882000D02*
X236347000Y-76882000D01*
X236347000Y-76882000D02*
X239145000Y-76882000D01*
X239145000Y-76882000D02*
X239395000Y-77132000D01*
X187960000Y-77390000D02*
X190754000Y-77390000D01*
X190754000Y-77390000D02*
X192790000Y-77390000D01*
X192790000Y-77390000D02*
X193040000Y-77640000D01*
X147574000Y-145288000D02*
X151638000Y-145288000D01*
X151638000Y-153162000D02*
X152146000Y-153670000D01*
X151638000Y-124968000D02*
X151130000Y-124460000D01*
X152654000Y-92456000D02*
X153162000Y-92964000D01*
X152654000Y-89408000D02*
X152654000Y-90678000D01*
X152654000Y-92456000D02*
X152654000Y-90678000D01*
X165430200Y-92964000D02*
X153162000Y-92964000D01*
X166281100Y-93814900D02*
X165430200Y-92964000D01*
X166281100Y-93814900D02*
X166281100Y-96113600D01*
X151384000Y-89408000D02*
X152654000Y-89408000D01*
X115570000Y-101346000D02*
X115570000Y-90170000D01*
X115570000Y-109220000D02*
X115570000Y-101346000D01*
X115570000Y-110744000D02*
X115570000Y-109220000D01*
X116332000Y-89408000D02*
X151384000Y-89408000D01*
X115570000Y-90170000D02*
X116332000Y-89408000D01*
X116332000Y-124460000D02*
X115570000Y-123698000D01*
X115570000Y-123698000D02*
X115570000Y-110744000D01*
X114109500Y-110680500D02*
X115570000Y-110680500D01*
X115570000Y-110680500D02*
X115570000Y-110744000D01*
X151638000Y-146050000D02*
X151638000Y-145288000D01*
X151638000Y-145288000D02*
X151638000Y-124968000D01*
X151130000Y-124460000D02*
X116586000Y-124460000D01*
X224536000Y-153670000D02*
X234188000Y-153670000D01*
X196342000Y-153670000D02*
X224536000Y-153670000D01*
X235966000Y-145288000D02*
X239268000Y-145288000D01*
X234950000Y-146304000D02*
X235966000Y-145288000D01*
X234950000Y-152908000D02*
X234950000Y-146304000D01*
X234188000Y-153670000D02*
X234950000Y-152908000D01*
X239268000Y-145288000D02*
X239395000Y-145415000D01*
X193294000Y-145288000D02*
X195834000Y-145288000D01*
X196342000Y-145796000D02*
X196342000Y-153670000D01*
X195834000Y-145288000D02*
X196342000Y-145796000D01*
X152146000Y-153670000D02*
X196342000Y-153670000D01*
X151638000Y-146050000D02*
X151638000Y-153162000D01*
X151638000Y-68580000D02*
X147574000Y-68580000D01*
X152654000Y-89408000D02*
X152654000Y-69596000D01*
X152654000Y-69596000D02*
X151638000Y-68580000D01*
X111188500Y-110680500D02*
X114109500Y-110680500D01*
X202692000Y-60452000D02*
X234950000Y-60452000D01*
X189992000Y-60452000D02*
X202692000Y-60452000D01*
X236474000Y-68580000D02*
X239395000Y-68580000D01*
X235712000Y-67818000D02*
X236474000Y-68580000D01*
X235712000Y-61214000D02*
X235712000Y-67818000D01*
X234950000Y-60452000D02*
X235712000Y-61214000D01*
X193040000Y-68580000D02*
X190754000Y-68580000D01*
X189992000Y-68326000D02*
X189992000Y-60452000D01*
X190246000Y-68580000D02*
X189992000Y-68326000D01*
X190754000Y-68580000D02*
X190246000Y-68580000D01*
X147574000Y-68580000D02*
X145288000Y-68580000D01*
X145288000Y-68580000D02*
X144780000Y-68072000D01*
X144780000Y-68072000D02*
X144780000Y-61214000D01*
X144780000Y-61214000D02*
X145542000Y-60452000D01*
X145542000Y-60452000D02*
X189992000Y-60452000D01*
X219091000Y-137049000D02*
X219091000Y-133538000D01*
X219202000Y-137160000D02*
X219091000Y-137049000D01*
X172482000Y-136668000D02*
X172482000Y-134554000D01*
X172720000Y-136906000D02*
X172482000Y-136668000D01*
X128286000Y-137398000D02*
X128286000Y-135062000D01*
X128270000Y-137414000D02*
X128286000Y-137398000D01*
X222615000Y-76819000D02*
X222615000Y-78806000D01*
X222504000Y-76708000D02*
X222615000Y-76819000D01*
X176260000Y-76724000D02*
X176260000Y-79060000D01*
X176276000Y-76708000D02*
X176260000Y-76724000D01*
X175940000Y-78740000D02*
X169672000Y-78740000D01*
X130794000Y-76470000D02*
X130794000Y-78298000D01*
X130810000Y-76454000D02*
X130794000Y-76470000D01*
X147828000Y-147828000D02*
X147828000Y-148336000D01*
X208407000Y-133938000D02*
X213203000Y-133938000D01*
X213203000Y-133938000D02*
X213553000Y-133588000D01*
X213553000Y-133588000D02*
X213553000Y-134178000D01*
X213553000Y-134178000D02*
X214503000Y-135128000D01*
X214503000Y-135128000D02*
X217501000Y-135128000D01*
X217501000Y-135128000D02*
X219091000Y-133538000D01*
X166436000Y-134604000D02*
X166436000Y-135194000D01*
X166436000Y-135194000D02*
X167386000Y-136144000D01*
X167386000Y-136144000D02*
X170892000Y-136144000D01*
X170892000Y-136144000D02*
X172482000Y-134554000D01*
X160782000Y-134446000D02*
X166278000Y-134446000D01*
X166278000Y-134446000D02*
X166436000Y-134604000D01*
X116078000Y-134954000D02*
X121574000Y-134954000D01*
X121574000Y-134954000D02*
X121732000Y-135112000D01*
X121732000Y-135112000D02*
X121732000Y-135702000D01*
X126696000Y-136652000D02*
X128286000Y-135062000D01*
X122682000Y-136652000D02*
X126696000Y-136652000D01*
X121732000Y-135702000D02*
X122682000Y-136652000D01*
X123714000Y-78298000D02*
X123714000Y-78216000D01*
X123714000Y-78216000D02*
X124206000Y-77724000D01*
X130220000Y-77724000D02*
X130794000Y-78298000D01*
X124206000Y-77724000D02*
X130220000Y-77724000D01*
X119126000Y-77898000D02*
X123314000Y-77898000D01*
X123314000Y-77898000D02*
X123714000Y-78298000D01*
X215535000Y-78806000D02*
X215961000Y-78806000D01*
X215961000Y-78806000D02*
X216535000Y-78232000D01*
X222041000Y-78232000D02*
X222615000Y-78806000D01*
X216535000Y-78232000D02*
X222041000Y-78232000D01*
X211455000Y-78914000D02*
X215427000Y-78914000D01*
X215427000Y-78914000D02*
X215535000Y-78806000D01*
X222885000Y-67310000D02*
X222535000Y-67310000D01*
X169672000Y-78740000D02*
X169352000Y-79060000D01*
X169180000Y-79060000D02*
X169352000Y-79060000D01*
X165100000Y-78660000D02*
X168780000Y-78660000D01*
X168780000Y-78660000D02*
X169180000Y-79060000D01*
X175940000Y-78740000D02*
X176260000Y-79060000D01*
X125714000Y-79248000D02*
X125714000Y-82296000D01*
X125714000Y-82296000D02*
X125730000Y-82296000D01*
X119126000Y-80598000D02*
X120984000Y-80598000D01*
X128696000Y-82296000D02*
X130794000Y-80198000D01*
X122682000Y-82296000D02*
X125730000Y-82296000D01*
X125730000Y-82296000D02*
X128696000Y-82296000D01*
X120984000Y-80598000D02*
X122682000Y-82296000D01*
X114046000Y-80598000D02*
X119126000Y-80598000D01*
X137748000Y-78740000D02*
X142160000Y-78740000D01*
X142160000Y-78740000D02*
X142494000Y-79074000D01*
X147574000Y-78824000D02*
X147574000Y-82470000D01*
X176260000Y-81804000D02*
X176260000Y-80960000D01*
X171196000Y-82804000D02*
X171196000Y-81312000D01*
X171180000Y-81296000D02*
X171180000Y-80010000D01*
X171196000Y-81312000D02*
X171180000Y-81296000D01*
X169672000Y-82804000D02*
X171196000Y-82804000D01*
X171196000Y-82804000D02*
X175260000Y-82804000D01*
X168656000Y-82804000D02*
X169672000Y-82804000D01*
X167212000Y-81360000D02*
X168656000Y-82804000D01*
X165100000Y-81360000D02*
X167212000Y-81360000D01*
X175260000Y-82804000D02*
X176260000Y-81804000D01*
X165100000Y-81360000D02*
X160020000Y-81360000D01*
X182960000Y-80010000D02*
X187880000Y-80010000D01*
X187880000Y-80010000D02*
X187960000Y-80090000D01*
X193040000Y-83486000D02*
X193040000Y-79840000D01*
X218059000Y-82804000D02*
X222123000Y-82804000D01*
X222615000Y-82312000D02*
X222615000Y-80706000D01*
X222123000Y-82804000D02*
X222615000Y-82312000D01*
X211455000Y-81614000D02*
X213313000Y-81614000D01*
X217535000Y-82788000D02*
X217535000Y-79756000D01*
X217551000Y-82804000D02*
X217535000Y-82788000D01*
X218059000Y-82804000D02*
X217551000Y-82804000D01*
X214503000Y-82804000D02*
X218059000Y-82804000D01*
X213313000Y-81614000D02*
X214503000Y-82804000D01*
X206375000Y-81614000D02*
X211455000Y-81614000D01*
X229061000Y-79756000D02*
X233125000Y-79756000D01*
X233125000Y-79756000D02*
X233299000Y-79582000D01*
X239395000Y-79332000D02*
X239395000Y-82978000D01*
X122682000Y-133112000D02*
X128236000Y-133112000D01*
X128236000Y-133112000D02*
X128286000Y-133162000D01*
X116078000Y-132254000D02*
X121824000Y-132254000D01*
X121824000Y-132254000D02*
X122682000Y-133112000D01*
X110490000Y-132254000D02*
X116078000Y-132254000D01*
X137748000Y-134112000D02*
X142320000Y-134112000D01*
X142320000Y-134112000D02*
X142494000Y-134286000D01*
X146558000Y-134536000D02*
X146558000Y-131398000D01*
X167386000Y-132604000D02*
X172432000Y-132604000D01*
X172432000Y-132604000D02*
X172482000Y-132654000D01*
X160782000Y-131746000D02*
X166528000Y-131746000D01*
X166528000Y-131746000D02*
X167386000Y-132604000D01*
X156718000Y-131746000D02*
X160782000Y-131746000D01*
X160274000Y-132254000D02*
X160782000Y-131746000D01*
X182452000Y-133604000D02*
X188548000Y-133604000D01*
X188548000Y-133604000D02*
X188722000Y-133778000D01*
X193294000Y-130382000D02*
X193294000Y-134028000D01*
X214503000Y-131588000D02*
X219041000Y-131588000D01*
X219041000Y-131588000D02*
X219091000Y-131638000D01*
X208407000Y-131238000D02*
X214153000Y-131238000D01*
X214153000Y-131238000D02*
X214503000Y-131588000D01*
X203327000Y-131238000D02*
X208407000Y-131238000D01*
X228553000Y-132588000D02*
X234141000Y-132588000D01*
X234141000Y-132588000D02*
X234315000Y-132762000D01*
X238379000Y-133520000D02*
X238379000Y-129874000D01*
X114046000Y-76200000D02*
X114046000Y-77898000D01*
X160020000Y-76200000D02*
X160020000Y-78660000D01*
X206375000Y-76835000D02*
X206375000Y-78914000D01*
X206248000Y-76708000D02*
X206375000Y-76835000D01*
X110490000Y-137160000D02*
X110490000Y-134954000D01*
X156718000Y-136906000D02*
X156718000Y-134446000D01*
X156972000Y-137160000D02*
X156718000Y-136906000D01*
X203327000Y-136271000D02*
X203327000Y-133938000D01*
X203200000Y-136398000D02*
X203327000Y-136271000D01*
X147574000Y-66040000D02*
X152146000Y-66040000D01*
X153924000Y-67818000D02*
X153924000Y-79502000D01*
X152146000Y-66040000D02*
X153924000Y-67818000D01*
X153924000Y-79502000D02*
X153924000Y-91186000D01*
X171361100Y-112687100D02*
X171361100Y-116433600D01*
X171196000Y-112522000D02*
X171361100Y-112687100D01*
X153924000Y-109474000D02*
X171196000Y-109474000D01*
X193040000Y-66040000D02*
X196596000Y-66040000D01*
X197866000Y-100584000D02*
X193040000Y-100584000D01*
X197866000Y-74422000D02*
X197612000Y-74676000D01*
X197866000Y-67310000D02*
X197866000Y-74422000D01*
X196596000Y-66040000D02*
X197866000Y-67310000D01*
X242570000Y-91948000D02*
X242570000Y-66802000D01*
X242570000Y-118364000D02*
X242570000Y-91948000D01*
X186436000Y-121666000D02*
X186436000Y-121920000D01*
X186436000Y-119634000D02*
X186436000Y-121666000D01*
X241808000Y-66040000D02*
X239395000Y-66040000D01*
X242570000Y-66802000D02*
X241808000Y-66040000D01*
X143002000Y-123444000D02*
X143002000Y-121666000D01*
X181356000Y-100330000D02*
X181356000Y-96278700D01*
X180086000Y-101600000D02*
X181356000Y-100330000D01*
X143256000Y-101600000D02*
X180086000Y-101600000D01*
X181356000Y-96278700D02*
X181521100Y-96113600D01*
X143002000Y-123444000D02*
X143002000Y-123759998D01*
X166370000Y-122174000D02*
X166370000Y-119888000D01*
X239395000Y-142367000D02*
X241046000Y-140716000D01*
X241046000Y-140716000D02*
X241046000Y-114046000D01*
X241046000Y-114046000D02*
X241046000Y-91694000D01*
X241046000Y-91694000D02*
X241046000Y-90424000D01*
X233426000Y-90424000D02*
X228600000Y-90424000D01*
X228600000Y-90424000D02*
X228854000Y-90424000D01*
X239395000Y-142875000D02*
X239395000Y-142367000D01*
X186601100Y-96113600D02*
X186601100Y-93891100D01*
X186436000Y-90424000D02*
X228600000Y-90424000D01*
X186601100Y-93891100D02*
X186436000Y-93726000D01*
X151041100Y-116433600D02*
X139090400Y-116433600D01*
X138684000Y-116840000D02*
X135128000Y-116840000D01*
X139090400Y-116433600D02*
X138684000Y-116840000D01*
X156121100Y-116433600D02*
X156121100Y-114642900D01*
X138176000Y-112014000D02*
X135128000Y-112014000D01*
X139446000Y-113284000D02*
X138176000Y-112014000D01*
X139446000Y-113792000D02*
X139446000Y-113284000D01*
X139700000Y-114046000D02*
X139446000Y-113792000D01*
X155524200Y-114046000D02*
X139700000Y-114046000D01*
X156121100Y-114642900D02*
X155524200Y-114046000D01*
X135128000Y-107188000D02*
X138176000Y-107188000D01*
X161201100Y-113957100D02*
X161201100Y-116433600D01*
X159766000Y-112522000D02*
X161201100Y-113957100D01*
X140970000Y-112522000D02*
X159766000Y-112522000D01*
X139446000Y-110998000D02*
X140970000Y-112522000D01*
X139446000Y-108458000D02*
X139446000Y-110998000D01*
X138176000Y-107188000D02*
X139446000Y-108458000D01*
X135128000Y-102362000D02*
X138176000Y-102362000D01*
X178816000Y-112268000D02*
X178816000Y-116268500D01*
X177546000Y-110998000D02*
X178816000Y-112268000D01*
X142494000Y-110998000D02*
X177546000Y-110998000D01*
X141478000Y-109982000D02*
X142494000Y-110998000D01*
X141478000Y-105664000D02*
X141478000Y-109982000D01*
X140716000Y-104902000D02*
X141478000Y-105664000D01*
X138176000Y-102362000D02*
X140716000Y-104902000D01*
X178816000Y-116268500D02*
X178981100Y-116433600D01*
X135128000Y-97536000D02*
X159004000Y-97536000D01*
X163741100Y-97878900D02*
X163741100Y-96113600D01*
X163322000Y-98298000D02*
X163741100Y-97878900D01*
X159766000Y-98298000D02*
X163322000Y-98298000D01*
X159004000Y-97536000D02*
X159766000Y-98298000D01*
X135128000Y-97536000D02*
X135128000Y-97028000D01*
X135128000Y-92710000D02*
X137668000Y-92710000D01*
X139192000Y-96012000D02*
X161099500Y-96012000D01*
X138176000Y-94996000D02*
X139192000Y-96012000D01*
X138176000Y-93218000D02*
X138176000Y-94996000D01*
X137668000Y-92710000D02*
X138176000Y-93218000D01*
X161099500Y-96012000D02*
X161201100Y-96113600D01*
X161099500Y-96012000D02*
X161201100Y-96113600D01*
X153924000Y-124714000D02*
X153670000Y-124714000D01*
X153924000Y-124714000D02*
X168148000Y-124714000D01*
X168148000Y-124714000D02*
X168910000Y-123952000D01*
X168910000Y-123952000D02*
X168910000Y-122428000D01*
X132588000Y-79248000D02*
X132588000Y-84074000D01*
X132080000Y-84582000D02*
X131572000Y-84582000D01*
X132588000Y-84074000D02*
X132080000Y-84582000D01*
X152146000Y-120650000D02*
X132080000Y-120650000D01*
X152654000Y-121158000D02*
X152146000Y-120650000D01*
X152654000Y-123698000D02*
X152654000Y-121158000D01*
X153670000Y-124714000D02*
X152654000Y-123698000D01*
X168821100Y-116433600D02*
X168821100Y-119799100D01*
X168821100Y-119799100D02*
X168910000Y-119888000D01*
X168910000Y-119888000D02*
X168821100Y-119799100D01*
X168656000Y-116598700D02*
X168821100Y-116433600D01*
X128794000Y-79248000D02*
X131826000Y-79248000D01*
X131826000Y-79248000D02*
X132588000Y-79248000D01*
X132588000Y-79248000D02*
X134540000Y-79248000D01*
X134540000Y-79248000D02*
X135048000Y-78740000D01*
X177800000Y-80772000D02*
X177800000Y-80010000D01*
X173990000Y-93726000D02*
X173990000Y-90678000D01*
X174260000Y-80010000D02*
X177800000Y-80010000D01*
X177800000Y-80010000D02*
X180260000Y-80010000D01*
X224536000Y-79756000D02*
X224536000Y-80010000D01*
X181521100Y-112864900D02*
X181521100Y-116433600D01*
X181610000Y-112776000D02*
X181521100Y-112864900D01*
X196850000Y-112776000D02*
X192532000Y-112776000D01*
X220615000Y-79756000D02*
X223647000Y-79756000D01*
X223647000Y-79756000D02*
X224536000Y-79756000D01*
X224536000Y-79756000D02*
X226361000Y-79756000D01*
X137414000Y-99822000D02*
X130810000Y-99822000D01*
X176441100Y-98209100D02*
X175768000Y-98882200D01*
X175768000Y-98882200D02*
X175691800Y-98882200D01*
X175691800Y-98882200D02*
X174752000Y-99822000D01*
X174752000Y-99822000D02*
X137414000Y-99822000D01*
X176441100Y-96113600D02*
X176441100Y-98209100D01*
X130048000Y-120904000D02*
X130048000Y-123444000D01*
X130048000Y-100584000D02*
X130048000Y-117348000D01*
X130810000Y-99822000D02*
X130048000Y-100584000D01*
X130286000Y-134112000D02*
X132842000Y-134112000D01*
X132842000Y-134112000D02*
X135048000Y-134112000D01*
X163576000Y-122428000D02*
X163576000Y-119888000D01*
X174482000Y-133604000D02*
X176022000Y-133604000D01*
X176022000Y-133604000D02*
X177038000Y-133604000D01*
X177038000Y-133604000D02*
X179752000Y-133604000D01*
X221996000Y-97536000D02*
X221996000Y-97790000D01*
X192633600Y-96113600D02*
X192786000Y-96266000D01*
X197104000Y-96266000D02*
X220726000Y-96266000D01*
X220726000Y-96266000D02*
X221996000Y-97536000D01*
X189141100Y-96113600D02*
X192633600Y-96113600D01*
X223266000Y-99060000D02*
X223266000Y-122936000D01*
X221996000Y-97790000D02*
X223266000Y-99060000D01*
X225853000Y-132588000D02*
X225853000Y-132254000D01*
X221091000Y-132588000D02*
X223266000Y-132588000D01*
X223266000Y-132588000D02*
X225853000Y-132588000D01*
X155448000Y-85344000D02*
X155702000Y-85344000D01*
X155702000Y-85344000D02*
X156718000Y-86360000D01*
X147574000Y-85170000D02*
X150702000Y-85170000D01*
X178981100Y-93383100D02*
X178981100Y-96113600D01*
X178816000Y-93218000D02*
X178981100Y-93383100D01*
X178816000Y-87884000D02*
X178816000Y-90424000D01*
X178562000Y-87630000D02*
X178816000Y-87884000D01*
X178562000Y-87376000D02*
X178562000Y-87630000D01*
X177546000Y-86360000D02*
X178562000Y-87376000D01*
X156718000Y-86360000D02*
X177546000Y-86360000D01*
X150702000Y-85170000D02*
X150876000Y-85344000D01*
X193040000Y-86186000D02*
X181944000Y-86186000D01*
X171361100Y-93306900D02*
X171361100Y-96113600D01*
X171450000Y-93218000D02*
X171361100Y-93306900D01*
X171450000Y-89408000D02*
X171450000Y-90678000D01*
X172466000Y-88392000D02*
X171450000Y-89408000D01*
X177292000Y-88392000D02*
X172466000Y-88392000D01*
X181944000Y-86186000D02*
X181864000Y-86106000D01*
X239395000Y-85678000D02*
X239395000Y-119761000D01*
X184061100Y-119799100D02*
X184061100Y-116433600D01*
X184150000Y-119888000D02*
X184061100Y-119799100D01*
X184150000Y-122682000D02*
X184150000Y-121666000D01*
X185166000Y-123698000D02*
X184150000Y-122682000D01*
X215900000Y-123698000D02*
X185166000Y-123698000D01*
X219710000Y-119888000D02*
X215900000Y-123698000D01*
X239395000Y-119761000D02*
X239522000Y-119888000D01*
X182626000Y-101600000D02*
X184061100Y-100164900D01*
X184061100Y-96113600D02*
X184061100Y-100164900D01*
X181102000Y-103124000D02*
X182626000Y-101600000D01*
X181102000Y-103124000D02*
X146558000Y-103124000D01*
X146558000Y-128698000D02*
X146558000Y-125730000D01*
X146558000Y-123698000D02*
X146558000Y-121666000D01*
X193294000Y-127682000D02*
X177626000Y-127682000D01*
X176441100Y-119799100D02*
X176441100Y-116433600D01*
X176530000Y-119888000D02*
X176441100Y-119799100D01*
X176530000Y-126586000D02*
X176530000Y-121920000D01*
X177626000Y-127682000D02*
X176530000Y-126586000D01*
X173736000Y-119888000D02*
X173901100Y-119722900D01*
X173901100Y-116433600D02*
X173901100Y-119722900D01*
X192024000Y-125222000D02*
X178562000Y-125222000D01*
X238379000Y-125349000D02*
X238252000Y-125222000D01*
X233934000Y-125222000D02*
X192024000Y-125222000D01*
X238379000Y-127174000D02*
X238379000Y-125349000D01*
M02*
