G04 #@! TF.FileFunction,Soldermask,Bot*
%FSLAX46Y46*%
G04 Gerber Fmt 4.6, Leading zero omitted, Abs format (unit mm)*
G04 Created by KiCad (PCBNEW 4.0.7-e2-6376~60~ubuntu17.10.1) date Mon Feb  5 04:30:27 2018*
%MOMM*%
%LPD*%
G01*
G04 APERTURE LIST*
%ADD10C,0.100000*%
%ADD11C,4.464000*%
%ADD12R,2.000000X2.000000*%
%ADD13C,2.000000*%
%ADD14C,4.400000*%
%ADD15O,1.600000X2.400000*%
%ADD16R,2.100000X2.100000*%
%ADD17O,2.100000X2.100000*%
%ADD18C,1.000000*%
G04 APERTURE END LIST*
D10*
D11*
X245110000Y-151130000D03*
X105410000Y-151130000D03*
X105410000Y-62230000D03*
D12*
X119380000Y-67310000D03*
D13*
X122150000Y-67310000D03*
X124920000Y-67310000D03*
X127690000Y-67310000D03*
X130460000Y-67310000D03*
X120765000Y-70150000D03*
X123535000Y-70150000D03*
X126305000Y-70150000D03*
X129075000Y-70150000D03*
D14*
X112420000Y-68730000D03*
X137420000Y-68730000D03*
D12*
X165100000Y-67310000D03*
D13*
X167870000Y-67310000D03*
X170640000Y-67310000D03*
X173410000Y-67310000D03*
X176180000Y-67310000D03*
X166485000Y-70150000D03*
X169255000Y-70150000D03*
X172025000Y-70150000D03*
X174795000Y-70150000D03*
D14*
X158140000Y-68730000D03*
X183140000Y-68730000D03*
D12*
X211455000Y-67310000D03*
D13*
X214225000Y-67310000D03*
X216995000Y-67310000D03*
X219765000Y-67310000D03*
X222535000Y-67310000D03*
X212840000Y-70150000D03*
X215610000Y-70150000D03*
X218380000Y-70150000D03*
X221150000Y-70150000D03*
D14*
X204495000Y-68730000D03*
X229495000Y-68730000D03*
D12*
X119380000Y-143510000D03*
D13*
X122150000Y-143510000D03*
X124920000Y-143510000D03*
X127690000Y-143510000D03*
X130460000Y-143510000D03*
X120765000Y-146350000D03*
X123535000Y-146350000D03*
X126305000Y-146350000D03*
X129075000Y-146350000D03*
D14*
X112420000Y-144930000D03*
X137420000Y-144930000D03*
D12*
X165100000Y-143510000D03*
D13*
X167870000Y-143510000D03*
X170640000Y-143510000D03*
X173410000Y-143510000D03*
X176180000Y-143510000D03*
X166485000Y-146350000D03*
X169255000Y-146350000D03*
X172025000Y-146350000D03*
X174795000Y-146350000D03*
D14*
X158140000Y-144930000D03*
X183140000Y-144930000D03*
D12*
X211455000Y-143510000D03*
D13*
X214225000Y-143510000D03*
X216995000Y-143510000D03*
X219765000Y-143510000D03*
X222535000Y-143510000D03*
X212840000Y-146350000D03*
X215610000Y-146350000D03*
X218380000Y-146350000D03*
X221150000Y-146350000D03*
D14*
X204495000Y-144930000D03*
X229495000Y-144930000D03*
D15*
X151041100Y-116433600D03*
X153581100Y-116433600D03*
X156121100Y-116433600D03*
X158661100Y-116433600D03*
X161201100Y-96113600D03*
X161201100Y-116433600D03*
X163741100Y-96113600D03*
X163741100Y-116433600D03*
X166281100Y-96113600D03*
X166281100Y-116433600D03*
X168821100Y-96113600D03*
X168821100Y-116433600D03*
X171361100Y-96113600D03*
X171361100Y-116433600D03*
X173901100Y-96113600D03*
X173901100Y-116433600D03*
X176441100Y-96113600D03*
X176441100Y-116433600D03*
X178981100Y-96113600D03*
X178981100Y-116433600D03*
X181521100Y-96113600D03*
X181521100Y-116433600D03*
X184061100Y-96113600D03*
X184061100Y-116433600D03*
X186601100Y-96113600D03*
X186601100Y-116433600D03*
X189141100Y-96113600D03*
X189141100Y-116433600D03*
D16*
X147574000Y-71120000D03*
D17*
X147574000Y-68580000D03*
X147574000Y-66040000D03*
D16*
X193040000Y-71120000D03*
D17*
X193040000Y-68580000D03*
X193040000Y-66040000D03*
D16*
X239395000Y-71120000D03*
D17*
X239395000Y-68580000D03*
X239395000Y-66040000D03*
D16*
X147574000Y-147828000D03*
D17*
X147574000Y-145288000D03*
X147574000Y-142748000D03*
D16*
X193294000Y-147828000D03*
D17*
X193294000Y-145288000D03*
X193294000Y-142748000D03*
D16*
X239395000Y-147955000D03*
D17*
X239395000Y-145415000D03*
X239395000Y-142875000D03*
D16*
X135128000Y-116840000D03*
X135128000Y-112014000D03*
X135128000Y-107188000D03*
X135128000Y-102362000D03*
X135128000Y-97536000D03*
X135128000Y-92710000D03*
X111188500Y-106108500D03*
X111188500Y-110680500D03*
X111188500Y-101536500D03*
D11*
X245110000Y-62230000D03*
D18*
X153924000Y-129286000D03*
X150114000Y-129286000D03*
X118872000Y-87884000D03*
X118872000Y-91440000D03*
X118872000Y-106172000D03*
X150876000Y-76708000D03*
X155194000Y-76708000D03*
X219202000Y-137160000D03*
X172720000Y-136906000D03*
X128270000Y-137414000D03*
X222504000Y-76708000D03*
X176276000Y-76708000D03*
X130810000Y-76454000D03*
X114046000Y-76200000D03*
X160020000Y-76200000D03*
X206248000Y-76708000D03*
X110490000Y-137160000D03*
X156972000Y-137160000D03*
X203200000Y-136398000D03*
X153924000Y-91186000D03*
X171196000Y-112522000D03*
X171196000Y-109474000D03*
X153924000Y-109474000D03*
X193040000Y-100584000D03*
X197866000Y-100584000D03*
X197612000Y-74676000D03*
X242570000Y-118364000D03*
X186436000Y-119634000D03*
X186436000Y-121920000D03*
X143002000Y-123444000D03*
X143002000Y-121666000D03*
X143256000Y-101600000D03*
X166370000Y-119888000D03*
X166370000Y-122174000D03*
X233426000Y-90424000D03*
X241046000Y-90424000D03*
X186436000Y-90424000D03*
X186436000Y-93726000D03*
X168910000Y-122428000D03*
X168910000Y-119888000D03*
X131572000Y-84582000D03*
X132080000Y-120650000D03*
X177800000Y-80772000D03*
X173990000Y-90678000D03*
X173990000Y-93726000D03*
X181610000Y-112776000D03*
X192532000Y-112776000D03*
X196850000Y-112776000D03*
X224536000Y-80010000D03*
X132842000Y-134112000D03*
X130048000Y-123444000D03*
X130048000Y-120904000D03*
X130048000Y-117348000D03*
X177038000Y-133604000D03*
X163576000Y-119888000D03*
X163576000Y-122428000D03*
X192786000Y-96266000D03*
X197104000Y-96266000D03*
X223266000Y-132588000D03*
X223266000Y-122936000D03*
X178816000Y-93218000D03*
X178816000Y-90424000D03*
X155448000Y-85344000D03*
X150876000Y-85344000D03*
X171450000Y-93218000D03*
X171450000Y-90678000D03*
X177292000Y-88392000D03*
X181864000Y-86106000D03*
X184150000Y-119888000D03*
X184150000Y-121666000D03*
X219710000Y-119888000D03*
X239522000Y-119888000D03*
X146558000Y-103124000D03*
X146558000Y-121666000D03*
X146558000Y-123698000D03*
X146558000Y-125730000D03*
X176530000Y-119888000D03*
X176530000Y-121920000D03*
X173736000Y-119888000D03*
X238252000Y-125222000D03*
X233934000Y-125222000D03*
X178562000Y-125222000D03*
M02*
